<svg width="1440" height="900" viewBox="0 0 1440 900" fill="none" xmlns="http://www.w3.org/2000/svg">
<path fill-rule="evenodd" clip-rule="evenodd" d="M0 697.674C6.48708 701.868 12.5726 706.445 20.0429 712.063C46.0634 731.632 88.8852 763.836 224 836.5C235.613 841.439 248.499 847.07 262.509 853.192L262.516 853.194L262.52 853.196C294.232 867.052 331.705 883.426 373.216 900H1055.21C1058.33 897.397 1061.43 894.73 1064.5 892C1296.76 685.483 1350.15 640.661 1440 643.831V0H979.442C963.343 9.09952 947.416 19.4475 931.699 31.1688C786.576 139.4 569.29 71.5911 449.855 0H0V395.092C29.7972 407.493 19.8394 447.681 0 494.022V697.674Z" fill="#398277"/>
</svg>
